<mxfile host="app.diagrams.net" modified="2024-05-06T06:47:36.419Z" agent="Mozilla/5.0 (Windows NT 10.0; Win64; x64) AppleWebKit/537.36 (KHTML, like Gecko) Chrome/125.0.0.0 Safari/537.36 Edg/125.0.0.0" etag="MoOPLCaq7mKHtWx4cxsJ" version="23.1.5" type="github">
  <diagram id="6a731a19-8d31-9384-78a2-239565b7b9f0" name="Page-1">
    <mxGraphModel dx="1426" dy="793" grid="1" gridSize="10" guides="1" tooltips="1" connect="1" arrows="1" fold="1" page="1" pageScale="1" pageWidth="1169" pageHeight="827" background="none" math="0" shadow="0">
      <root>
        <mxCell id="0" />
        <mxCell id="1" parent="0" />
        <mxCell id="4AjtwyOKJm7ZgQFJ1VFY-60" style="edgeStyle=orthogonalEdgeStyle;rounded=0;orthogonalLoop=1;jettySize=auto;html=1;entryX=0;entryY=0.5;entryDx=0;entryDy=0;" edge="1" parent="1" source="4AjtwyOKJm7ZgQFJ1VFY-56" target="4AjtwyOKJm7ZgQFJ1VFY-61">
          <mxGeometry relative="1" as="geometry">
            <mxPoint x="472.5" y="342.5" as="targetPoint" />
          </mxGeometry>
        </mxCell>
        <mxCell id="4AjtwyOKJm7ZgQFJ1VFY-56" value="原始语义信息&lt;br&gt;图像/视频/音频/文字" style="rounded=1;whiteSpace=wrap;html=1;" vertex="1" parent="1">
          <mxGeometry x="170" y="370" width="130" height="70" as="geometry" />
        </mxCell>
        <mxCell id="4AjtwyOKJm7ZgQFJ1VFY-63" style="edgeStyle=orthogonalEdgeStyle;rounded=0;orthogonalLoop=1;jettySize=auto;html=1;entryX=0;entryY=0.5;entryDx=0;entryDy=0;" edge="1" parent="1" source="4AjtwyOKJm7ZgQFJ1VFY-61" target="4AjtwyOKJm7ZgQFJ1VFY-62">
          <mxGeometry relative="1" as="geometry" />
        </mxCell>
        <mxCell id="4AjtwyOKJm7ZgQFJ1VFY-61" value="编码器" style="rounded=0;whiteSpace=wrap;html=1;" vertex="1" parent="1">
          <mxGeometry x="410" y="375" width="120" height="60" as="geometry" />
        </mxCell>
        <mxCell id="4AjtwyOKJm7ZgQFJ1VFY-65" style="edgeStyle=orthogonalEdgeStyle;rounded=0;orthogonalLoop=1;jettySize=auto;html=1;entryX=0;entryY=0.5;entryDx=0;entryDy=0;" edge="1" parent="1" source="4AjtwyOKJm7ZgQFJ1VFY-62" target="4AjtwyOKJm7ZgQFJ1VFY-64">
          <mxGeometry relative="1" as="geometry" />
        </mxCell>
        <mxCell id="4AjtwyOKJm7ZgQFJ1VFY-62" value="结构化向量码流" style="rounded=0;whiteSpace=wrap;html=1;" vertex="1" parent="1">
          <mxGeometry x="620" y="375" width="120" height="60" as="geometry" />
        </mxCell>
        <mxCell id="4AjtwyOKJm7ZgQFJ1VFY-67" style="edgeStyle=orthogonalEdgeStyle;rounded=0;orthogonalLoop=1;jettySize=auto;html=1;entryX=0;entryY=0.5;entryDx=0;entryDy=0;" edge="1" parent="1" source="4AjtwyOKJm7ZgQFJ1VFY-64" target="4AjtwyOKJm7ZgQFJ1VFY-66">
          <mxGeometry relative="1" as="geometry" />
        </mxCell>
        <mxCell id="4AjtwyOKJm7ZgQFJ1VFY-64" value="目标驱动型解码器" style="rounded=0;whiteSpace=wrap;html=1;" vertex="1" parent="1">
          <mxGeometry x="810" y="375" width="120" height="60" as="geometry" />
        </mxCell>
        <mxCell id="4AjtwyOKJm7ZgQFJ1VFY-66" value="特异化语义信息" style="rounded=1;whiteSpace=wrap;html=1;" vertex="1" parent="1">
          <mxGeometry x="1020" y="370" width="130" height="70" as="geometry" />
        </mxCell>
        <mxCell id="4AjtwyOKJm7ZgQFJ1VFY-68" value="面向多种国家的语义表达：&lt;br&gt;视频（多语言）&lt;br&gt;文本（多语言）&lt;br&gt;音频（多语言）&lt;br&gt;图像（多特异化语义）" style="ellipse;whiteSpace=wrap;html=1;" vertex="1" parent="1">
          <mxGeometry x="1270" y="234" width="200" height="106" as="geometry" />
        </mxCell>
        <mxCell id="4AjtwyOKJm7ZgQFJ1VFY-69" value="" style="curved=1;endArrow=classic;html=1;rounded=0;exitX=1;exitY=0.5;exitDx=0;exitDy=0;entryX=0;entryY=0.5;entryDx=0;entryDy=0;" edge="1" parent="1" source="4AjtwyOKJm7ZgQFJ1VFY-66" target="4AjtwyOKJm7ZgQFJ1VFY-68">
          <mxGeometry width="50" height="50" relative="1" as="geometry">
            <mxPoint x="1350" y="410" as="sourcePoint" />
            <mxPoint x="1400" y="360" as="targetPoint" />
            <Array as="points">
              <mxPoint x="1180" y="340" />
            </Array>
          </mxGeometry>
        </mxCell>
        <mxCell id="4AjtwyOKJm7ZgQFJ1VFY-70" value="面向单一特定地区的限制性语义表达：&lt;br&gt;阿拉伯地区（屏蔽穆罕穆德）&lt;br&gt;以色列地区（屏蔽巴勒斯坦）&lt;br&gt;中国大陆地区（屏蔽邪教特征语义）&lt;br&gt;世界范围（屏蔽种族歧视特征语义）" style="ellipse;whiteSpace=wrap;html=1;" vertex="1" parent="1">
          <mxGeometry x="1260" y="361" width="280" height="106" as="geometry" />
        </mxCell>
        <mxCell id="4AjtwyOKJm7ZgQFJ1VFY-72" value="" style="curved=1;endArrow=classic;html=1;rounded=0;exitX=1;exitY=0.5;exitDx=0;exitDy=0;entryX=0;entryY=0.5;entryDx=0;entryDy=0;" edge="1" parent="1" source="4AjtwyOKJm7ZgQFJ1VFY-66" target="4AjtwyOKJm7ZgQFJ1VFY-70">
          <mxGeometry width="50" height="50" relative="1" as="geometry">
            <mxPoint x="1180" y="440" as="sourcePoint" />
            <mxPoint x="1230" y="390" as="targetPoint" />
            <Array as="points">
              <mxPoint x="1200" y="410" />
            </Array>
          </mxGeometry>
        </mxCell>
        <mxCell id="4AjtwyOKJm7ZgQFJ1VFY-73" value="面向残疾人特征语义表达：&lt;br&gt;输出盲文符号（可被机器执行）&lt;br&gt;输出结构化手语视频" style="ellipse;whiteSpace=wrap;html=1;" vertex="1" parent="1">
          <mxGeometry x="1252.5" y="480" width="235" height="100" as="geometry" />
        </mxCell>
        <mxCell id="4AjtwyOKJm7ZgQFJ1VFY-74" value="" style="curved=1;endArrow=classic;html=1;rounded=0;entryX=0;entryY=0.5;entryDx=0;entryDy=0;exitX=1;exitY=0.5;exitDx=0;exitDy=0;" edge="1" parent="1" source="4AjtwyOKJm7ZgQFJ1VFY-66" target="4AjtwyOKJm7ZgQFJ1VFY-73">
          <mxGeometry width="50" height="50" relative="1" as="geometry">
            <mxPoint x="1150" y="540" as="sourcePoint" />
            <mxPoint x="1200" y="490" as="targetPoint" />
            <Array as="points">
              <mxPoint x="1170" y="490" />
            </Array>
          </mxGeometry>
        </mxCell>
        <mxCell id="4AjtwyOKJm7ZgQFJ1VFY-75" value="面向非人类特征语义表达：&lt;br&gt;狗叫声&lt;br&gt;汽船鸣笛声&lt;br&gt;火车交互信号灯&lt;br&gt;特异化语义代码块（例如配置路由器命令行）" style="ellipse;whiteSpace=wrap;html=1;" vertex="1" parent="1">
          <mxGeometry x="1240" y="590" width="280" height="140" as="geometry" />
        </mxCell>
        <mxCell id="4AjtwyOKJm7ZgQFJ1VFY-76" value="" style="curved=1;endArrow=classic;html=1;rounded=0;entryX=0;entryY=0.5;entryDx=0;entryDy=0;exitX=1;exitY=0.5;exitDx=0;exitDy=0;" edge="1" parent="1" source="4AjtwyOKJm7ZgQFJ1VFY-66" target="4AjtwyOKJm7ZgQFJ1VFY-75">
          <mxGeometry width="50" height="50" relative="1" as="geometry">
            <mxPoint x="1080" y="610" as="sourcePoint" />
            <mxPoint x="1220" y="580" as="targetPoint" />
            <Array as="points">
              <mxPoint x="1170" y="580" />
            </Array>
          </mxGeometry>
        </mxCell>
        <mxCell id="4AjtwyOKJm7ZgQFJ1VFY-78" style="edgeStyle=orthogonalEdgeStyle;rounded=0;orthogonalLoop=1;jettySize=auto;html=1;" edge="1" parent="1" source="4AjtwyOKJm7ZgQFJ1VFY-77" target="4AjtwyOKJm7ZgQFJ1VFY-64">
          <mxGeometry relative="1" as="geometry" />
        </mxCell>
        <mxCell id="4AjtwyOKJm7ZgQFJ1VFY-77" value="限制性条件参数+prompt" style="rounded=1;whiteSpace=wrap;html=1;" vertex="1" parent="1">
          <mxGeometry x="930" y="220" width="120" height="60" as="geometry" />
        </mxCell>
      </root>
    </mxGraphModel>
  </diagram>
</mxfile>
